<svg width="157" height="157" fill="none" xmlns="http://www.w3.org/2000/svg"><path d="M155.322 80.064l-3.482-.108-.006.182 3.443 1.366-.037 1.214-3.934-1.666-4.023 1.602.037-1.214 3.516-1.333.005-.182-3.471-.107.035-1.134 7.952.245-.035 1.135zm-1.418 6.637l.157-1.695-2.316-.215-.152 1.639-.984-.092.153-1.638-2.645-.246-.162 1.752-.983-.091.267-2.882 7.91.734-.262 2.825-.983-.09zm-.594 4.345l.255-1.683-2.301-.348-.246 1.627-.976-.148.246-1.627-2.625-.397-.264 1.74-.976-.148.433-2.862 7.855 1.189-.425 2.805-.976-.148zm.716 1.768l-.395 1.807c-.279 1.275-1.261 1.78-3.013 1.398l-.022-.005c-1.751-.383-2.318-1.192-2.03-2.511l.151-.688-2.695-.589.243-1.108 7.761 1.696zm-1.207.898l-3.127-.684-.15.688c-.128.588.166.942.92 1.107l.842.184c.799.175 1.236-.02 1.364-.608l.151-.687zm-4.994 10.595l.37-1.072.987.341c.579.2 1.027.018 1.197-.475.17-.494-.073-.902-.652-1.102l-.418-.145c-.58-.2-.918-.089-1.554.64l-.309.374c-.633.754-1.27.894-2.375.512l-.203-.07c-1.213-.419-1.687-1.375-1.275-2.566.411-1.19 1.353-1.622 2.575-1.2l.912.316-.37 1.072-.987-.341c-.58-.2-1.027-.018-1.201.486-.178.515.062.934.641 1.134l.451.156c.579.2.921.078 1.535-.622l.335-.413c.622-.722 1.294-.862 2.378-.487l.161.055c1.233.426 1.697 1.343 1.293 2.512-.408 1.18-1.367 1.629-2.579 1.21l-.912-.315zm-.012 2.858l-3.897-1.683c-.667-.288-1.067.009-1.238.405-.175.406-.113.891.554 1.179l1.48.639-.45 1.042-1.407-.608c-1.292-.558-1.533-1.601-1.079-2.654.455-1.052 1.361-1.576 2.663-1.013l3.751 1.619c1.312.567 1.542 1.581 1.088 2.633-.455 1.053-1.38 1.593-2.672 1.035l-1.406-.608.449-1.041 1.48.638c.677.293 1.062.002 1.238-.405.171-.395.123-.886-.554-1.178zm-.07 4.731l-.851 1.643c-.58 1.118-1.59 1.438-2.819.801l-.04-.021c-1.068-.553-1.412-1.345-1.23-1.967l-.071-.036c-.398.496-1.279.666-2.246.165l-.131-.068c-.685-.355-1.088-.539-1.493-.646l.522-1.008c.466.114.939.359 1.504.652l.544.282c.564.292 1.017.182 1.284-.332l.323-.625-2.871-1.488.522-1.008 7.053 3.656zm-1.399.553l-2.428-1.258-.324.625c-.266.513-.075.958.53 1.271l.554.287c.604.314 1.078.214 1.344-.3l.324-.625zm-2.87 3.41c1.217.75 1.299 1.786.704 2.753-.607.985-1.601 1.387-2.799.649l-3.479-2.143c-1.198-.738-1.287-1.805-.68-2.791.595-.966 1.567-1.354 2.775-.61l3.479 2.142zm-.528 1.008l-3.614-2.225c-.618-.381-1.051-.155-1.283.222-.226.367-.24.866.379 1.246l3.614 2.226c.618.381 1.057.145 1.283-.223.232-.376.24-.865-.379-1.246zm-.796 4.708l-.654.927-5.685-4.01-.981 1.391-.807-.569 1.635-2.318 6.492 4.579zm-2.286 3.193l-.701.893-5.473-4.295-1.051 1.339-.776-.61 1.751-2.232 6.25 4.905zm-2.407 3.012l-.736.864-6.048-5.15.736-.864 6.048 5.15zm-3.467 3.871l-.779.826-5.778-5.452.904-.957 5.56 2.937.047-.05-4.572-3.985.779-.826 5.778 5.452-.903.958-5.593-2.937-.046.05 4.603 3.984zm-3.947 1.309l-2.871-3.111c-.439-.475-.937-.463-1.229-.193-.342.315-.408.963.192 1.614l.855.925.658-.608.516.559-1.484 1.37-2.856-3.094.592-.546.639.692.058-.054a1.498 1.498 0 01.352-1.761c.6-.554 1.64-.649 2.595.385l2.771 3.002c.962 1.042.768 2.071-.074 2.848-.834.77-1.899.888-2.853-.146l-.862-.934.825-.762.908.984c.501.542.971.432 1.296.132.317-.293.472-.76-.028-1.302zm-5.591 7.15l-2.059-2.81-.147.107 1.044 3.555-.979.718-1.111-4.125-3.739-2.184.979-.718 3.216 1.949.146-.108-2.053-2.8.915-.671 4.704 6.416-.916.671zm-6.093 2.952l1.433-.919-1.256-1.959-1.385.889-.533-.831 1.385-.889-1.434-2.235-1.481.95-.533-.831 2.436-1.563 4.289 6.687-2.388 1.532-.533-.831zm-3.829 2.218l1.484-.833-1.139-2.029-1.435.806-.483-.861 1.435-.806-1.3-2.315-1.534.861-.483-.861 2.524-1.417 3.888 6.928-2.474 1.388-.483-.861zm-1.006 1.672l-1.67.796c-1.178.562-2.179.096-2.951-1.522l-.01-.021c-.771-1.619-.479-2.562.74-3.143l.635-.303-1.187-2.49 1.025-.488 3.418 7.171zm-1.449-.403l-1.377-2.889-.635.303c-.543.259-.643.709-.311 1.405l.371.779c.352.738.774.964 1.317.705l.635-.303zm-11.397 2.544l1.074-.366.337.988c.198.58.616.821 1.11.652.494-.168.667-.611.469-1.191l-.143-.419c-.198-.58-.494-.779-1.459-.833l-.485-.014c-.984-.036-1.485-.453-1.863-1.559l-.07-.204c-.414-1.214.05-2.175 1.242-2.582 1.192-.407 2.11.071 2.528 1.295l.312.913-1.074.367-.337-.988c-.198-.58-.616-.821-1.121-.649-.516.176-.699.622-.501 1.202l.154.451c.198.58.504.776 1.434.83l.531.011c.952.047 1.475.491 1.846 1.576l.054.161c.422 1.236-.016 2.165-1.187 2.564-1.182.403-2.125-.078-2.539-1.292l-.312-.913zm-2.173 1.713l-1.08-4.105c-.184-.702-.665-.834-1.082-.724-.428.112-.77.46-.586 1.163l.41 1.558-1.097.289-.39-1.482c-.358-1.361.315-2.195 1.423-2.486 1.109-.292 2.08.099 2.44 1.471l1.04 3.951c.363 1.383-.294 2.189-1.402 2.48-1.109.292-2.105-.104-2.462-1.465l-.39-1.481 1.098-.289.41 1.559c.187.713.654.837 1.082.724.417-.109.773-.449.586-1.163zm-3.898 2.886l-1.82.333c-1.24.226-2.11-.376-2.36-1.738l-.008-.044c-.216-1.184.2-1.94.802-2.177l-.014-.078c-.637-.011-1.31-.603-1.506-1.675l-.027-.145c-.139-.759-.24-1.19-.403-1.576l1.116-.204c.195.437.291.962.406 1.587l.11.603c.114.625.479.916 1.048.812l.692-.127-.581-3.181 1.116-.204 1.429 7.814zm-1.294-.767l-.492-2.69-.692.126c-.57.104-.804.528-.681 1.198l.112.614c.122.669.491.983 1.06.879l.693-.127zm-4.395-.195c.16 1.421-.606 2.123-1.734 2.25-1.15.129-2.078-.406-2.235-1.805l-.456-4.06c-.157-1.398.63-2.126 1.78-2.255 1.127-.127 2.031.4 2.19 1.81l.455 4.06zm-1.119.205l-.473-4.218c-.081-.722-.526-.923-.966-.873-.428.048-.83.344-.748 1.066l.473 4.218c.081.721.538.921.966.873.44-.049.83-.344.748-1.066zm-4.174 2.259l-1.133.056-.35-6.948-1.7.086-.049-.986 2.834-.143.398 7.935zm-4.205.163l-1.134-.004.026-6.957-1.702-.006.004-.988 2.837.011-.03 7.944zm-3.863-.055l-1.133-.053.367-7.935 1.134.052-.368 7.936zm-5.171-.368l-1.13-.109.766-7.908 1.31.127 1.088 6.194.068.006.346-6.055 1.13.11-.765 7.907-1.31-.127-1.11-6.218-.067-.007-.326 6.08zm-3.529-2.33l.714-4.173c.109-.637-.205-1.025-.597-1.092-.458-.078-1.012.265-1.161 1.137l-.212 1.242.883.151-.128.749-1.991-.34.71-4.15.794.136-.159.928.078.014a1.498 1.498 0 011.61-.796c.806.138 1.515.904 1.278 2.291l-.689 4.027c-.239 1.398-1.172 1.872-2.302 1.679-1.118-.191-1.861-.963-1.624-2.35l.214-1.253 1.108.189-.226 1.32c-.124.727.25 1.033.686 1.108.425.072.89-.09 1.014-.817zm-9.027-.046l.962-3.349-.175-.05-2.173 3.001-1.167-.336 2.584-3.402-.561-4.294 1.167.336.426 3.735.175.05.959-3.337 1.09.313-2.197 7.646-1.09-.313zm-6.062-3.021l1.603.574.784-2.19-1.55-.555.334-.93 1.549.555.895-2.5-1.656-.593.333-.93 2.725.976-2.679 7.479-2.67-.957.332-.929zm-4.094-1.682l1.565.669.914-2.139-1.513-.647.388-.908 1.513.647 1.044-2.442-1.618-.691.388-.908 2.662 1.137-3.123 7.305-2.608-1.115.388-.908zm-1.891.242l-1.652-.833c-1.165-.588-1.41-1.665-.603-3.266l.01-.02c.808-1.601 1.733-1.948 2.939-1.34l.628.317 1.242-2.462 1.013.511-3.577 7.093zm-.57-1.393l1.442-2.857-.628-.317c-.537-.271-.954-.074-1.302.615l-.388.77c-.368.729-.288 1.202.249 1.472l.628.317zm-8.99-7.478l.946.627-.576.87c-.339.511-.274.989.16 1.278.436.288.892.154 1.23-.357l.245-.369c.338-.511.315-.866-.232-1.664l-.284-.393c-.572-.8-.55-1.452.096-2.427l.12-.179c.708-1.07 1.752-1.29 2.802-.594 1.05.695 1.233 1.715.518 2.793l-.532.804-.946-.626.576-.871c.339-.511.274-.989-.17-1.283-.455-.301-.92-.174-1.259.337l-.263.397c-.338.511-.306.873.22 1.643l.315.427c.544.782.511 1.468-.121 2.424l-.094.142c-.721 1.088-1.725 1.308-2.756.625-1.04-.689-1.236-1.731-.528-2.8l.533-.804zm-2.694-.676l2.596-3.358c.444-.575.255-1.036-.086-1.3-.35-.271-.835-.33-1.28.245l-.985 1.275-.898-.695.937-1.212c.861-1.113 1.932-1.088 2.839-.387.907.701 1.19 1.708.322 2.831l-2.499 3.232c-.874 1.131-1.914 1.102-2.82.401-.907-.701-1.201-1.731-.34-2.844l.937-1.212.898.694-.986 1.275c-.451.583-.265 1.029.085 1.299.342.264.829.339 1.28-.244zm-4.652-1.312l-1.378-1.235c-.938-.84-.995-1.898-.071-2.929l.03-.034c.803-.896 1.656-1.03 2.212-.699l.053-.059c-.381-.51-.325-1.405.402-2.216l.098-.11c.515-.575.794-.919 1-1.284l.844.757c-.226.423-.582.82-1.006 1.293l-.41.456c-.424.473-.43.94 0 1.326l.525.47 2.159-2.408.845.757-5.303 5.915zm-.186-1.492l1.826-2.037-.524-.47c-.431-.386-.91-.312-1.364.195l-.417.465c-.454.507-.476.991-.045 1.377l.524.47zm-2.558-3.604c-1.03.992-2.054.813-2.841-.004-.804-.833-.945-1.895.068-2.872l2.94-2.836c1.014-.977 2.07-.797 2.873.036.788.817.922 1.855-.1 2.84l-2.94 2.836zm-.845-.762l3.055-2.946c.523-.504.411-.98.104-1.299-.3-.31-.779-.447-1.301.057l-3.056 2.946c-.523.504-.403.988-.104 1.299.308.318.779.447 1.302-.057zm-4.275-1.845l-.739-.862 5.28-4.53-1.108-1.292.75-.642 1.847 2.153-6.03 5.173zm-2.525-2.99l-.694-.898 5.504-4.254-1.041-1.347.78-.604 1.736 2.245-6.285 4.858zm-2.324-3.069l-.658-.925 6.476-4.603.657.925-6.475 4.603zm-2.9-4.313l-.61-.958 6.703-4.264.707 1.11-4.212 4.671.037.057 4.985-3.454.61.957-6.703 4.265-.707-1.111 4.219-4.701-.037-.058-4.992 3.486zm-.347-4.239l3.729-2.003c.57-.307.682-.792.494-1.142-.22-.41-.83-.636-1.61-.217l-1.11.596.424.79-.67.36-.956-1.779 3.71-1.993.38.71-.83.445.038.07a1.498 1.498 0 011.618.781c.386.719.219 1.75-1.021 2.416l-3.599 1.934c-1.25.671-2.197.227-2.74-.783-.537-1-.385-2.06.855-2.726l1.12-.602.531.99-1.18.633c-.65.35-.66.832-.451 1.222.204.38.618.647 1.268.298zm-5.493-7.083l3.233-1.297-.067-.168-3.703.128-.452-1.128 4.272-.05 3.044-3.08.452 1.127-2.686 2.631.067.168 3.223-1.292.423 1.053-7.384 2.962-.422-1.054zm-1.363-6.69l.532 1.618 2.21-.727-.514-1.563.938-.309.514 1.564 2.523-.83-.55-1.67.939-.309.903 2.749-7.547 2.481-.886-2.695.938-.309zM4.897 97.01l.439 1.645 2.248-.6-.425-1.59.954-.254.425 1.59 2.565-.685-.453-1.7.954-.254.746 2.796-7.675 2.048-.732-2.74.954-.255zm-1.402-1.52l-.353-1.816c-.25-1.282.451-2.135 2.212-2.478l.022-.004c1.76-.342 2.6.176 2.859 1.502l.134.69 2.707-.527.217 1.114-7.798 1.518zm.753-1.303l3.141-.612-.134-.69c-.115-.591-.526-.8-1.284-.653l-.846.165c-.802.156-1.127.509-1.012 1.099l.135.69zm.384-11.589l.088 1.131-1.041.08c-.611.048-.949.393-.909.913.04.52.426.798 1.037.75l.442-.033c.61-.047.877-.284 1.17-1.206l.135-.466c.28-.944.808-1.326 1.973-1.416l.215-.016c1.279-.1 2.095.589 2.192 1.845.097 1.256-.595 2.026-1.885 2.126l-.962.074L7 85.25l1.04-.08c.612-.048.95-.393.908-.924-.042-.544-.428-.832-1.04-.785l-.474.037c-.611.047-.877.295-1.161 1.182l-.143.512c-.282.91-.843 1.306-1.986 1.394l-.17.013c-1.301.1-2.092-.555-2.187-1.788-.096-1.245.605-2.04 1.884-2.138l.961-.074zm-1.135-2.933H7.74c.726 0 .976-.431.976-.862 0-.443-.25-.863-.976-.863H6.129v-1.135h1.533c1.407 0 2.042.863 2.042 2.01 0 1.145-.624 1.985-2.042 1.985H3.576c-1.43 0-2.043-.84-2.043-1.986s.636-2.009 2.043-2.009h1.532v1.135H3.497c-.738 0-.976.42-.976.863 0 .431.238.862.976.862zm-1.821-4.284l.128-1.845c.087-1.257.886-1.952 2.268-1.856l.045.003c1.2.084 1.83.674 1.91 1.316l.08.006c.168-.614.908-1.12 1.995-1.045l.147.01c.77.054 1.213.062 1.627 0l-.079 1.132c-.472.081-1.004.044-1.638 0l-.611-.043c-.634-.044-1.006.238-1.047.815l-.048.702 3.226.224-.079 1.133-7.924-.552zm1.063-1.063l2.729.19.049-.703c.04-.577-.313-.909-.992-.956l-.623-.043c-.679-.047-1.074.232-1.114.81l-.049.702zm1.272-4.26c-1.415-.203-1.903-1.122-1.741-2.245.164-1.146.916-1.91 2.309-1.71l4.044.58c1.393.2 1.9 1.145 1.735 2.29-.161 1.124-.898 1.867-2.303 1.665l-4.044-.58zm.083-1.135l4.201.603c.72.103 1.026-.277 1.089-.715.061-.427-.125-.89-.844-.993l-4.201-.602c-.72-.104-1.028.288-1.089.715-.063.438.125.889.844.992zm-1.167-4.532l.23-1.111 6.812 1.408.345-1.668.967.2-.574 2.78-7.78-1.608zm.858-4.005l.288-1.098 6.728 1.769.433-1.647.955.251-.721 2.744-7.683-2.02zm.94-3.487l.33-1.086 7.601 2.31-.33 1.085-7.6-2.31zm1.676-5.056l.387-1.067 7.469 2.707-.449 1.237-6.27-.486-.023.064 5.779 1.841-.387 1.067L5.44 54.5l.448-1.237 6.3.472.022-.064-5.808-1.827zm3.194-2.988l3.86 1.736c.59.265 1.044.058 1.207-.304.191-.424-.002-1.046-.81-1.41l-1.148-.516-.368.818-.694-.312.829-1.842 3.84 1.726-.33.735-.86-.386-.032.072c.549.496.618 1.2.367 1.758-.335.745-1.255 1.24-2.538.663l-3.726-1.675c-1.294-.582-1.52-1.604-1.049-2.65.465-1.034 1.399-1.56 2.682-.983l1.16.521-.461 1.025-1.222-.55c-.672-.302-1.062-.017-1.244.387-.176.393-.136.884.537 1.187zm2.196-8.558l3 1.773.093-.157-2.36-2.856.618-1.046 2.645 3.355 4.297.535-.617 1.046-3.723-.526-.093.157 2.99 1.766-.577.977-6.85-4.046.577-.977zm4.454-5.159l-.956 1.409 1.926 1.306.923-1.362.817.554-.923 1.362 2.198 1.49.987-1.455.817.554-1.624 2.395-6.575-4.46 1.593-2.347.817.554zm2.662-3.582l-1.037 1.351 1.846 1.416 1.002-1.305.783.6-1.002 1.306 2.107 1.617 1.071-1.396.784.601-1.762 2.296-6.303-4.836 1.727-2.25.784.6zm.275-1.959l1.22-1.39c.86-.982 1.964-.95 3.312.233l.017.015c1.348 1.182 1.453 2.165.563 3.18l-.464.529 2.073 1.818-.748.853-5.973-5.238zm1.49-.202l2.407 2.11.464-.529c.396-.452.31-.905-.27-1.413l-.648-.57c-.615-.538-1.092-.58-1.488-.127l-.464.53zm9.518-6.9l-.843.76-.7-.774c-.41-.455-.89-.512-1.277-.162-.387.35-.371.825.04 1.28l.296.328c.411.455.761.521 1.67.19l.451-.178c.918-.355 1.543-.17 2.327.697l.144.16c.86.952.814 2.018-.121 2.862-.935.845-1.968.768-2.835-.192l-.646-.716.842-.76.7.774c.41.455.89.511 1.285.154.405-.365.397-.848-.014-1.302l-.32-.354c-.41-.455-.768-.514-1.644-.197l-.493.2c-.892.333-1.549.13-2.317-.72l-.114-.127c-.875-.968-.839-1.995.08-2.824.926-.837 1.983-.767 2.842.185l.647.716zm.987-2.18l2.62 3.339c.449.571.942.501 1.282.235.348-.273.524-.729.075-1.3l-.994-1.268.892-.7.946 1.205c.869 1.107.583 2.14-.319 2.847-.902.707-1.948.735-2.823-.381l-2.523-3.214c-.882-1.125-.6-2.126.302-2.833.901-.708 1.972-.74 2.841.367l.946 1.205-.893.7-.995-1.267c-.455-.58-.933-.509-1.28-.236-.34.267-.532.72-.077 1.3zm2.45-4.237l1.534-1.033c1.045-.703 2.085-.5 2.858.649l.025.037c.672.998.594 1.858.136 2.316l.045.066c.587-.245 1.441.029 2.05.932l.082.123c.43.64.697.995 1 1.283l-.941.633c-.354-.322-.652-.765-1.007-1.292l-.342-.509c-.355-.527-.806-.648-1.286-.324l-.583.392 1.805 2.684-.941.633-4.435-6.59zm1.492.185l1.527 2.27.584-.394c.48-.323.525-.805.145-1.37l-.348-.517c-.38-.565-.844-.705-1.324-.382l-.584.393zm4.191-1.653c-.708-1.242-.283-2.19.703-2.753 1.005-.574 2.069-.45 2.767.772l2.026 3.548c.698 1.222.264 2.201-.741 2.775-.986.563-2.025.438-2.728-.794L39.31 14.61zm.947-.632l2.105 3.686c.36.63.848.64 1.233.42.374-.214.625-.645.265-1.276l-2.105-3.685c-.36-.631-.859-.634-1.233-.42-.384.22-.625.644-.265 1.275zm3.035-3.801l1.019-.5 3.063 6.246 1.529-.75.434.887-2.547 1.249-3.498-7.133zm3.642-1.757l1.043-.447 2.734 6.397 1.566-.669.388.908-2.61 1.115-3.121-7.305zm3.175-1.336l1.06-.407 2.846 7.417-1.06.407-2.846-7.417zm5.068-1.806l1.08-.35 2.452 7.555-1.252.407-3.468-5.246-.065.021 2.097 5.69-1.08.351L52.49 6.15l1.253-.406 3.497 5.26.064-.021-2.126-5.705zm3.98.765l1.014 4.11c.154.628.597.857.983.762.451-.111.822-.647.61-1.506l-.302-1.223-.87.215-.182-.739 1.96-.483 1.01 4.087-.783.193-.226-.914-.077.019a1.497 1.497 0 01-1.157 1.373c-.794.195-1.75-.223-2.087-1.59l-.979-3.966c-.34-1.378.326-2.185 1.44-2.46 1.101-.271 2.09.14 2.428 1.506l.304 1.234-1.09.269-.322-1.3c-.176-.717-.641-.847-1.07-.741-.42.103-.781.438-.604 1.154zm8.53-3.628l.442 3.456.18-.023.808-3.616 1.205-.154-1.026 4.147 2.215 3.721-1.205.154-1.87-3.262-.18.023.44 3.445-1.125.144-1.01-7.891 1.126-.144zm6.745.35l-1.7.112.153 2.321 1.642-.108.065.986-1.642.108.174 2.65 1.755-.116.065.985-2.888.19-.52-7.927 2.83-.186.066.985zm4.482-.105l-1.702.013L77.23 5l1.645-.013.008.987-1.646.013.02 2.656 1.76-.014.008.987-2.894.023-.062-7.944 2.837-.022.008.987zm1.565-.997l1.847.107c1.303.076 1.956.966 1.852 2.756l-.001.023c-.104 1.79-.815 2.477-2.163 2.398l-.702-.04-.16 2.753-1.133-.066.46-7.93zm1.076 1.052L81.37 5.91l.702.04c.6.035.905-.311.95-1.081l.05-.861c.046-.816-.214-1.218-.815-1.253l-.702-.04zM93.206 6.02l-1.118-.2.184-1.027c.108-.603-.14-1.017-.655-1.109-.514-.091-.88.212-.987.815l-.078.436c-.108.603.054.92.873 1.436l.417.247c.843.509 1.08 1.116.874 2.267l-.038.212c-.225 1.262-1.097 1.879-2.337 1.657-1.24-.222-1.812-1.085-1.584-2.359l.17-.95 1.117.2-.184 1.028c-.108.604.141 1.017.666 1.111.537.096.913-.206 1.021-.809l.084-.469c.108-.603-.066-.923-.853-1.42l-.46-.267c-.808-.503-1.05-1.145-.85-2.274l.03-.167c.23-1.285 1.064-1.885 2.282-1.667 1.229.22 1.821 1.098 1.595 2.36l-.17.95zm2.642-.48L94.8 9.653c-.18.704.177 1.052.595 1.159.429.109.897-.03 1.077-.733l.397-1.562 1.1.28-.378 1.485c-.348 1.364-1.34 1.766-2.451 1.483-1.11-.283-1.77-1.095-1.42-2.47l1.008-3.958c.353-1.386 1.319-1.773 2.43-1.49 1.11.283 1.789 1.112 1.442 2.476l-.379 1.484-1.1-.28.398-1.561c.182-.715-.166-1.05-.595-1.16-.417-.106-.894.019-1.076.734zm4.603-.714l1.755.584c1.196.398 1.67 1.345 1.232 2.659l-.014.043c-.38 1.141-1.108 1.604-1.751 1.522l-.025.075c.553.316.858 1.16.514 2.193l-.046.14c-.244.732-.362 1.16-.405 1.576l-1.077-.359c.039-.477.208-.983.408-1.586l.194-.582c.201-.603.021-1.033-.528-1.216l-.668-.222-1.021 3.068-1.077-.358 2.509-7.537zm.765 1.295l-.864 2.595.668.222c.549.183.958-.076 1.173-.722l.197-.592c.215-.646.043-1.098-.506-1.28l-.668-.223zm4.019 2.367c.552-1.319 1.563-1.56 2.61-1.122 1.068.447 1.618 1.367 1.075 2.665l-1.578 3.768c-.543 1.299-1.584 1.552-2.652 1.105-1.047-.438-1.58-1.338-1.033-2.647l1.578-3.769zm1.077.365l-1.638 3.915c-.281.67.01 1.063.418 1.234.398.166.892.102 1.173-.568l1.639-3.915c.28-.67-.021-1.067-.419-1.233-.408-.171-.892-.103-1.173.567zm4.433-.113l1.019.499-3.063 6.246 1.528.75-.435.886-2.547-1.25 3.498-7.132zm3.603 1.786l.992.552-3.383 6.079 1.488.827-.481.863-2.479-1.38 3.863-6.941zm3.408 1.929l.969.592-4.141 6.78-.968-.592 4.14-6.78zm4.423 2.848l.937.64-4.483 6.559-1.087-.743 2.034-5.951-.057-.039-3.223 5.138-.937-.64 4.483-6.559 1.087.743-2.027 5.982.056.039 3.217-5.17zm2.036 3.781l-2.637 3.311c-.403.506-.315.997-.005 1.244.364.29 1.015.257 1.566-.436l.785-.985-.701-.558.474-.595 1.58 1.258-2.624 3.294-.63-.502.587-.737-.062-.05a1.498 1.498 0 01-1.794-.08c-.639-.508-.891-1.522-.014-2.622l2.545-3.196c.884-1.11 1.93-1.074 2.826-.36.888.707 1.167 1.741.29 2.842l-.792.994-.879-.7.834-1.047c.46-.577.28-1.025-.066-1.3-.337-.27-.823-.352-1.283.225zm7.977 4.458l-2.464 2.464.129.128 3.354-1.573.859.859-3.909 1.725-1.588 4.029-.859-.859 1.436-3.475-.128-.128-2.456 2.456-.802-.803 5.625-5.625.803.802zm3.869 5.584l-1.127-1.276-1.743 1.54 1.089 1.234-.74.654-1.089-1.234-1.991 1.759 1.165 1.318-.74.654-1.916-2.17 5.954-5.259 1.878 2.126-.74.654zm2.535 3.117l-1.056-1.335-1.825 1.443 1.021 1.29-.775.613-1.02-1.291-2.083 1.647 1.091 1.38-.775.612-1.795-2.27 6.232-4.927 1.759 2.226-.774.612zm1.85.765l1.049 1.523c.741 1.075.439 2.137-1.037 3.154l-.019.013c-1.477 1.018-2.455.878-3.221-.234l-.399-.58-2.271 1.566-.644-.935 6.542-4.507zm-.169 1.494l-2.636 1.816.4.58c.341.495.801.523 1.436.085l.711-.49c.672-.463.829-.916.488-1.411l-.399-.58zm4.405 10.99l-.53-1.003.924-.488c.542-.286.714-.736.471-1.198-.244-.462-.708-.563-1.25-.277l-.391.206c-.542.287-.693.61-.595 1.572l.061.481c.118.977-.215 1.538-1.249 2.084l-.191.1c-1.134.599-2.156.291-2.744-.823-.588-1.114-.259-2.096.885-2.7l.853-.45.53 1.004-.923.487c-.542.286-.715.737-.466 1.208.254.482.724.594 1.266.307l.421-.222c.542-.286.687-.62.596-1.546l-.073-.526c-.102-.948.256-1.534 1.269-2.07l.151-.079c1.154-.609 2.14-.32 2.718.773.582 1.104.254 2.111-.88 2.71l-.853.45zm2.099 2.001l-3.89 1.698c-.666.29-.722.785-.55 1.18.177.406.574.691 1.24.4l1.477-.644.454 1.04-1.405.613c-1.289.563-2.217.026-2.675-1.024-.458-1.05-.222-2.07 1.078-2.637l3.745-1.634c1.311-.572 2.208-.047 2.666 1.004.459 1.05.221 2.095-1.069 2.658l-1.404.612-.454-1.04 1.477-.644c.676-.295.727-.776.55-1.181-.173-.395-.563-.695-1.24-.4zm3.38 3.191l.617 1.744c.421 1.188-.036 2.144-1.341 2.606l-.043.015c-1.134.401-1.947.111-2.276-.446l-.075.026c.09.63-.387 1.39-1.414 1.753l-.14.049c-.727.257-1.137.427-1.491.648l-.379-1.07c.401-.262.903-.44 1.503-.652l.577-.204c.599-.212.829-.618.636-1.164l-.235-.663-3.049 1.079-.379-1.07 7.489-2.65zm-.552 1.4l-2.578.912.234.663c.194.546.649.71 1.291.483l.588-.208c.642-.228.893-.641.7-1.187l-.235-.663zm.586 4.594c1.38-.374 2.191.276 2.488 1.371.303 1.118-.085 2.116-1.444 2.484l-3.943 1.069c-1.358.368-2.197-.298-2.5-1.415-.297-1.096.086-2.07 1.455-2.44l3.944-1.07zm.373 1.074l-4.097 1.11c-.701.19-.832.661-.716 1.088.113.416.467.767 1.168.577l4.096-1.11c.701-.19.83-.671.717-1.087-.116-.428-.467-.768-1.168-.578zm2.856 3.662l.23 1.111-6.813 1.408.344 1.667-.966.2-.575-2.778 7.78-1.608zm.751 3.724l.174 1.121-6.875 1.068.261 1.682-.975.151-.435-2.803 7.85-1.219zm.583 4.004l.127 1.127-7.895.886-.126-1.127 7.894-.886zm.449 5.124l.07 1.133-7.929.49-.081-1.314 5.945-2.05-.004-.069-6.034.612-.07-1.132 7.929-.49.081 1.313-5.966 2.075.004.068 6.055-.636z" fill="#fff"/></svg>